<svg xmlns="http://www.w3.org/2000/svg" width="451" height="155" viewBox="0 0 451 155" fill="none"><g clip-path="url(#clip0_1065_4277)"><path d="M41.5771 2.54469C44.8419 1.15431 48.5532 -1.26495 52.0412 0.723295C63.1191 5.90943 74.5319 10.456 85.3029 16.1983C70.6114 12.0827 56.0036 7.55008 41.5771 2.54469Z" fill="#E71615"></path><path d="M15.724 11.4429C20.9979 9.3156 26.2717 3.71235 32.313 6.57654C53.6178 15.0857 75.4388 22.3852 96.4924 31.4783C81.6614 28.6975 67.1931 24.2066 52.4458 20.9114C40.2517 17.6579 27.9181 15.0579 15.724 11.4429Z" fill="#E71615"></path><path d="M8.38513 29.3929C8.63534 25.8552 10.0028 22.4872 12.2917 19.7715C35.6335 25.0132 58.8497 30.7972 82.1775 36.0668C84.7279 36.4979 87.1276 37.5644 89.1535 39.1673C83.3634 39.6401 77.6152 38.5834 71.8949 37.8604C50.8133 34.5235 29.5504 32.3684 8.38513 29.3929Z" fill="#E71615"></path><path d="M0.013916 47.6897C0.659292 44.2092 2.0125 40.897 3.99026 37.957C27.4158 39.6116 50.5901 43.7966 74.0016 45.5902C87.0049 47.4951 100.12 48.371 113.067 50.5956C95.8645 50.248 78.6058 50.9015 61.4448 49.2887C40.9632 49.0245 20.4955 48.0929 0.013916 47.6897Z" fill="#E71615"></path><path d="M5.72034 57.3256C29.4388 56.9085 53.0736 57.7705 76.7502 57.8122C83.7262 58.5074 90.8697 57.993 97.6783 59.5641L93.9252 61.2743C75.7038 63.5545 57.2871 63.2208 39.0518 65.3759C30.6806 65.8486 22.1977 66.085 13.8125 66.8775C8.72003 67.0305 7.71548 60.8293 5.72034 57.3256Z" fill="#E71615"></path><path d="M101.864 68.3935C109.299 67.4113 116.806 67.081 124.299 67.4063C104.25 70.8822 84.0891 73.4822 64.0679 77.139C58.8079 78.1122 53.3806 79.2106 48.023 78.5293C45.8086 76.7535 44.1325 74.3997 43.1816 71.7304C62.7982 70.479 82.3311 69.0747 101.864 68.3935Z" fill="#E71615"></path><path d="M68.6999 81.9911C78.9686 80.9483 89.042 78.1814 99.3944 78.3205C98.641 81.1013 95.4181 81.2125 93.1718 82.005C82.1497 84.9804 71.0857 87.7473 60.0357 90.6115C57.5602 91.1026 55.0229 91.2058 52.5155 90.9174C52.4039 88.7206 52.2783 86.5238 52.1388 84.3408C57.7057 83.6735 63.1609 82.5055 68.6999 81.9911Z" fill="#E71615"></path><path d="M56.1012 96.8266C74.2389 93.0726 92.1812 88.818 110.333 85.3281C97.776 90.3613 84.9819 94.6437 72.3832 99.4683C67.5419 101.192 62.7842 103.361 57.608 103.904C57.036 101.554 56.5477 99.2042 56.1012 96.8266Z" fill="#E71615"></path><path d="M226.567 91.9882C231.758 89.124 238.454 92.6973 240.519 97.8417C244.817 105.211 243.435 113.984 243.659 122.118C243.854 128.778 242.542 135.924 237.994 141.055C235.022 144.6 229.623 144.392 225.66 143.071C221.028 140.109 218.88 134.353 218.336 129.167C217.791 121.259 217.819 113.323 218.419 105.419C219.173 100.122 221.349 94.3102 226.567 91.9882ZM226.846 97.7027C225.161 99.5235 224.118 101.842 223.875 104.307C222.243 113.671 222.366 123.254 224.237 132.574C225.116 137.051 230.544 141.945 234.632 137.621C238.817 131.42 238.231 123.717 238.273 116.556C238.273 110.605 238.678 104.168 235.357 98.9123C234.946 98.1943 234.376 97.5794 233.69 97.1146C233.004 96.6499 232.22 96.3476 231.399 96.2308C230.578 96.1141 229.741 96.1861 228.952 96.4412C228.163 96.6963 227.442 97.1278 226.846 97.7027Z" fill="#E71615"></path><path d="M286.826 92.3359C293.802 92.1969 300.876 92.2247 307.908 92.2664C307.978 93.7402 308.047 95.2279 308.131 96.7156C302.823 97.3013 297.481 97.5335 292.142 97.4108C292.142 102.972 292.142 108.534 292.142 113.998C296.018 114.376 299.912 114.524 303.806 114.443C303.806 115.833 303.806 117.335 303.904 118.781C300.011 118.892 296.118 118.962 292.24 119.198C292.17 125.552 292.142 131.92 292.24 138.274C297.207 138.274 302.187 138.038 307.168 138.399C309.959 137.871 310.154 143.446 307.015 143.085C300.277 143.657 293.498 143.541 286.784 142.737C286.91 125.941 286.687 109.132 286.826 92.3359Z" fill="#E71615"></path><path d="M348.271 92.3491C356.196 92.1544 364.135 92.2378 372.073 92.2795C372.073 93.6699 372.171 95.0603 372.227 96.4507C368.876 96.5955 365.536 96.9298 362.223 97.4518C362.223 112.816 362.502 128.193 362.07 143.557L358.037 143.265C357.214 127.971 357.842 112.676 357.744 97.4657C354.48 96.9095 351.187 96.6315 347.894 96.3812L348.271 92.3491Z" fill="#E71615"></path><path d="M380.417 92.2939H385.579C385.802 109.076 385.579 125.858 385.69 142.654H380.291C380.375 125.872 380.152 109.09 380.417 92.2939Z" fill="#E71615"></path><path d="M397.131 92.3774C404.177 92.1688 411.209 92.2384 418.255 92.2662L418.924 96.6737C413.513 97.3151 408.06 97.5336 402.614 97.3272C402.345 102.991 402.345 108.654 402.614 114.318C406.423 114.318 410.246 114.387 414.069 114.443C414.069 115.903 414.069 117.363 414.153 118.836C410.316 118.934 406.465 118.948 402.642 119.017C402.363 125.399 402.405 131.795 402.531 138.177C408.056 138.242 413.585 138.283 419.12 138.302C419.245 139.692 419.385 141.194 419.524 142.654C412.074 143.703 404.512 143.703 397.061 142.654C397.229 125.9 397.02 109.132 397.131 92.3774Z" fill="#E71615"></path><path d="M426.5 104.042C425.105 95.6024 435.178 87.5799 442.824 92.3489C447.749 94.5179 448.991 100.121 449.047 104.974L445.308 105.182C443.996 102.235 442.74 99.273 441.373 96.3532C437.955 95.9639 433.616 95.4355 431.914 99.2591C431.467 102.04 430.951 105.405 433.155 107.601C438.373 113.872 446.647 117.668 449.689 125.676C450.819 130.696 450.777 136.799 446.759 140.526C443.606 144.572 437.871 144.363 433.351 143.306C428.175 140.915 425.649 135.173 426.124 129.667C432.318 128.165 430.909 137.036 435.681 138.843C440.941 141.332 445.74 135.34 445.67 130.501C443.689 118.794 427.672 116.208 426.5 104.042Z" fill="#E71615"></path><path d="M152.733 92.2658C159.709 92.3631 168.08 91.1535 173.382 96.7289C176.577 101.373 175.531 107.63 174.777 112.885C171.708 119.754 163.406 119.545 157.156 121.144C157.323 128.61 157.463 136.077 157.044 143.529L152.984 143.209C152.091 126.288 152.733 109.242 152.733 92.2658ZM157.254 97.5492C157.254 103.25 157.323 108.964 157.254 114.665C160.923 115.596 165.248 115.944 168.276 113.274C171.917 110.605 171.247 105.377 170.355 101.554C167.885 96.5204 161.858 97.299 157.254 97.5492Z" fill="#E71615"></path><path d="M185.06 92.3915C193.124 92.2524 205.681 90.5283 208.597 100.456C211.876 107.102 207.467 114.137 202.5 118.531C203.686 127.082 207.886 134.868 209.169 143.419C207.369 143.057 204.342 144.003 203.7 141.583C200.909 134.631 199.668 127.262 197.031 120.31C195.371 118.169 192.594 119.17 190.334 119.129C189.999 127.082 190.906 135.104 189.873 142.988C189.402 143.338 188.838 143.544 188.251 143.583C187.664 143.622 187.079 143.491 186.564 143.206C186.05 142.922 185.629 142.495 185.353 141.978C185.076 141.46 184.955 140.874 185.004 140.29C184.962 124.301 184.906 108.339 185.06 92.3915ZM190.306 96.9241C190.306 102.639 190.306 108.353 190.306 114.068C192.429 114.548 194.634 114.541 196.753 114.047C198.873 113.554 200.853 112.586 202.542 111.217C203.839 107.755 203.142 103.959 203.184 100.358C201.419 98.8841 199.351 97.8128 197.127 97.2195C194.902 96.6262 192.574 96.5254 190.306 96.9241Z" fill="#E71615"></path><path d="M254.597 92.3073C261.936 92.3073 271.925 90.917 276.223 98.4389C277.827 102.985 277.45 108.172 276.571 112.857C273.488 119.434 265.41 120.198 259.09 120.435C258.838 128.026 259.55 135.729 258.685 143.237L254.723 143.529C254.262 126.469 254.471 109.381 254.597 92.3073ZM259.034 97.4796C259.034 103.236 259.034 109.006 259.034 114.762C263.973 116.417 270.823 115.068 272.581 109.59C272.846 106.281 273.376 102.332 270.767 99.7598C267.81 96.3812 262.954 97.6186 259.034 97.4796Z" fill="#E71615"></path><path d="M317.479 92.3076C324.455 92.4883 332.938 90.9172 338.63 96.0894C342.286 99.0231 341.421 104.098 341.421 108.214C341.755 112.899 337.584 115.847 334.905 119.114C336.816 127.22 340.569 134.826 341.658 143.112C339.788 143.112 337.277 143.974 336.384 141.722C333.189 135.034 332.784 127.387 329.408 120.755C328.334 117.974 325.013 119.281 322.822 119.1C322.725 126.15 322.906 133.199 322.822 140.234C323.367 143.335 319.586 143.251 317.59 143.668C317.158 126.525 317.353 109.409 317.479 92.3076ZM322.836 96.9515C322.836 102.666 322.836 108.38 322.836 114.095C327.022 114.818 331.766 114.262 334.905 111.133C337.695 107.421 337.374 101.401 333.51 98.6199C330.343 96.4509 326.38 96.7429 322.836 96.9515Z" fill="#E71615"></path><path d="M76.9037 104.181C83.4054 102.276 89.7257 99.551 96.5343 99.0088C93.7439 102.985 88.6374 104.139 84.4797 106.267C76.3875 109.576 68.8953 114.414 60.3845 116.611C60.3845 114.094 60.3845 111.578 60.3845 109.075C65.8677 107.24 71.4206 105.808 76.9037 104.181Z" fill="#E71615"></path><path d="M60.4822 123.133C74.7551 117.126 89.2234 111.551 103.734 106.17C96.3948 111.537 88.2049 115.541 80.4615 120.241C74.0296 123.8 68.0582 128.235 61.0821 130.696C60.8868 128.166 60.7054 125.649 60.4822 123.133Z" fill="#E71615"></path><path d="M61.1239 137.564C73.8621 130.418 87.3258 124.592 100.552 118.377C89.1257 127.345 77.1827 135.632 65.3235 144.03C63.6985 142.028 62.2908 139.861 61.1239 137.564Z" fill="#E71615"></path><path d="M68.672 148.132C77.8106 143.21 86.3213 137.009 95.9901 133.144C88.1211 140.346 80.6428 147.979 72.6344 155C70.9183 152.943 68.951 150.913 68.672 148.132Z" fill="#E71615"></path><path d="M162.193 11.0535C165.019 10.6383 167.894 10.69 170.703 11.2064C174.038 26.6397 177.121 42.1146 180.233 57.5757C181.713 62.8197 182.52 68.2299 182.632 73.6764C180.837 73.5837 179.037 73.4724 177.233 73.3427C175.621 67.5449 174.46 61.6323 173.759 55.657C168.717 54.7395 163.551 54.7395 158.509 55.657C157.764 61.7187 156.575 67.7179 154.951 73.6068L149.594 73.4678C150.194 63.8185 153.779 54.6698 154.798 45.0761C157.826 33.8279 158.858 22.2043 162.193 11.0535ZM165.82 19.2428C163.141 28.9755 161.941 39.0558 160.546 49.0526C164.192 49.1268 167.843 49.1268 171.499 49.0526C170.48 38.9863 169.587 28.6696 165.82 19.2289V19.2428Z" fill="#9E9E9E"></path><path d="M194.45 11.0122C202.759 10.4282 211.1 10.4282 219.41 11.0122C219.41 12.917 219.41 14.8358 219.41 16.7406C212.992 16.9213 206.574 16.8796 200.17 16.9491C200.17 24.0308 200.17 31.1079 200.17 38.1803C205.165 38.1803 210.174 38.2637 215.182 38.4584L215.057 44.0199C210.167 44.4462 205.259 44.6225 200.351 44.5483C200.017 54.1697 200.351 63.7912 200.212 73.4126C198.286 73.4822 196.375 73.5795 194.45 73.6351C194.436 52.7237 194.519 31.868 194.45 11.0122Z" fill="#9E9E9E"></path><path d="M231.116 10.7479C239.836 11.0538 250.802 8.55111 257.429 15.7533C261.74 19.8271 260.499 26.348 260.457 31.6593C260.638 37.0123 255.602 40.0016 252.086 43.13C254.876 53.3493 259.285 63.1237 260.82 73.635C258.308 73.635 254.485 74.1772 253.927 70.8542C250.844 61.9697 248.821 52.7792 245.821 43.8251C242.78 44.0337 239.752 44.2979 236.738 44.6455C236.864 54.3782 236.989 64.1108 236.669 73.8435L231.088 73.7323C230.934 52.6819 230.851 31.7427 231.116 10.7479ZM236.697 16.8934C236.836 23.9566 236.822 31.0336 236.697 38.0968C241.468 38.0968 246.993 39.2091 250.942 35.7887C256.522 31.3395 255.95 21.5234 249.825 17.825C245.682 16.0731 241.05 16.8239 236.683 16.8934H236.697Z" fill="#9E9E9E"></path><path d="M274.2 11.1228C276.251 11.0254 278.385 10.8864 280.394 10.7891C281.329 21.4533 280.604 32.1732 280.827 42.8652C280.604 53.1263 281.343 63.429 280.366 73.6761C278.302 73.5371 276.251 73.3702 274.2 73.2173C274.302 52.5098 274.302 31.8117 274.2 11.1228Z" fill="#9E9E9E"></path><path d="M296.355 11.1095L302.146 10.4561C302.662 29.3931 302.341 48.3579 302.299 67.3089C308.647 67.5035 315.009 67.434 321.371 67.5591L321.288 73.4822C312.996 73.9805 304.68 73.9155 296.397 73.2875C296.439 52.5986 296.509 31.8402 296.355 11.1095Z" fill="#9E9E9E"></path><path d="M340.904 11.0395C343.736 10.7056 346.597 10.7056 349.429 11.0395C350.601 18.3946 352.68 25.569 353.796 32.9241C356.252 46.6194 360.214 60.0227 361.986 73.8431C359.684 73.6067 357.41 73.3287 355.135 73.0506C354.159 67.2249 353.447 61.3714 352.485 55.5457C347.4 54.6261 342.183 54.7254 337.137 55.8376C336.497 61.6115 335.504 67.3412 334.166 72.995L328.487 73.9822C328.487 64.8056 332.115 56.1852 333.245 47.1616C336.007 35.1487 337.835 22.969 340.904 11.0395ZM339.272 49.1499C342.858 49.1499 346.443 49.1499 350.029 49.1499C350.029 38.875 347.141 28.9337 344.825 18.9925C342.269 28.9033 340.414 38.9805 339.272 49.1499Z" fill="#9E9E9E"></path><path d="M373.148 11.0122C376.008 10.9288 379.147 9.95548 381.84 11.3181C383.065 13.5285 384.061 15.8579 384.811 18.27C389.109 31.6733 393.88 44.9097 398.359 58.2574C398.498 42.421 398.247 26.5706 398.512 10.7341H403.87C404.023 31.8401 404.191 52.96 403.772 74.0522C401.359 73.5655 397.592 74.3024 397.075 71.035C390.532 53.8499 385.216 36.2754 378.938 18.9235C378.087 37.1931 379.063 55.5184 378.421 73.8019L373.148 73.3292C373.222 52.5198 373.222 31.7474 373.148 11.0122Z" fill="#9E9E9E"></path><path d="M419.454 10.7194C427.742 10.9836 438.276 8.57824 444.289 15.8778C450.233 23.4692 450.595 33.6469 451 42.8651C450.247 52.709 450.009 64.6802 441.373 71.2567C434.69 74.8022 426.751 73.5787 419.468 73.6482C419.217 52.672 419.213 31.6957 419.454 10.7194ZM426.165 16.4478C426.165 33.5078 426.165 50.5678 426.165 67.6418C428.634 67.6558 431.102 67.5444 433.56 67.3081C438.122 66.9188 441.401 62.7893 442.559 58.646C444.27 50.7253 444.773 42.5929 444.052 34.5228C443.41 29.0308 442.992 22.788 438.597 18.8254C435.011 16.2532 430.379 16.1002 426.165 16.4478Z" fill="#9E9E9E"></path></g><defs><clipPath id="clip0_1065_4277"><rect width="451" height="155" fill="white"></rect></clipPath></defs></svg>