<svg xmlns="http://www.w3.org/2000/svg" width="5418" height="823" viewBox="0 0 5418 823" fill="none"><path fill-rule="evenodd" clip-rule="evenodd" d="M1165.09 211.567H1241.73L1395.55 611.259H1316.4L1285.23 528.879H1121.39L1089.48 611.259H1010.33L1165.09 211.567ZM1203.5 317.803L1149.32 455.392H1257.4L1203.5 317.803ZM1411.23 315.665H1437.4C1437.58 276.973 1438.23 254.157 1439.25 247.105C1441.29 230.862 1448.07 217.968 1459.66 208.504C1471.36 199.039 1487.77 194.318 1509.02 194.318C1524.41 194.318 1541.67 197.828 1560.98 204.892V261.29C1550.3 258.227 1541.58 256.661 1534.71 256.661C1526.08 256.661 1519.79 258.421 1515.8 262.044C1512.92 264.731 1511.44 270.389 1511.44 278.836L1511.16 315.665H1558.19V378.567H1511.44V611.259H1437.4V378.567H1411.23V315.665ZM1584.82 315.665H1648.83V353.237C1655.7 338.583 1664.79 327.45 1676.12 319.837C1687.53 312.236 1699.96 308.43 1713.4 308.43C1722.96 308.43 1732.99 310.933 1743.47 316.042L1720.47 380.053C1711.84 375.687 1704.69 373.561 1699.13 373.561C1687.8 373.561 1678.15 380.614 1670.36 394.719C1662.47 408.813 1658.57 436.475 1658.57 477.659L1658.85 492.039V611.259H1584.82V315.665ZM1809.53 194.318C1822.52 194.318 1833.65 199.039 1842.93 208.412C1852.3 217.785 1856.94 229.102 1856.94 242.464C1856.94 255.643 1852.3 266.868 1843.12 276.138C1833.93 285.42 1822.88 290.061 1809.99 290.061C1796.81 290.061 1785.59 285.328 1776.32 275.864C1766.94 266.399 1762.3 254.889 1762.3 241.355C1762.3 228.359 1766.94 217.317 1776.13 208.126C1785.31 198.948 1796.45 194.318 1809.53 194.318ZM1772.33 611.259H1846.36V315.665H1772.33V611.259ZM2203 375.79L2141.3 409.75C2129.71 397.588 2118.29 389.244 2106.98 384.5C2095.66 379.779 2082.39 377.459 2067.17 377.459C2039.43 377.459 2016.98 385.712 1999.92 402.137C1982.75 418.654 1974.21 439.71 1974.21 465.508C1974.21 490.553 1982.46 510.968 1998.89 526.833C2015.41 542.699 2037.02 550.586 2063.84 550.586C2096.96 550.586 2122.76 539.27 2141.3 516.626L2199.66 556.713C2167.93 597.908 2123.22 618.495 2065.41 618.495C2013.37 618.495 1972.63 603.098 1943.22 572.384C1913.81 541.67 1899.07 505.767 1899.07 464.571C1899.07 435.995 1906.2 409.75 1920.49 385.712C1934.87 361.685 1954.83 342.756 1980.52 329.027C2006.13 315.288 2034.79 308.43 2066.52 308.43C2095.93 308.43 2122.29 314.282 2145.67 325.964C2169.04 337.646 2188.17 354.266 2203 375.79ZM2488.67 315.665H2562.7V611.259H2488.67V579.814C2474.2 593.542 2459.63 603.384 2445.06 609.408C2430.5 615.431 2414.64 618.495 2397.66 618.495C2359.34 618.495 2326.31 603.749 2298.38 574.156C2270.45 544.653 2256.53 507.904 2256.53 464.022C2256.53 418.46 2270.09 381.162 2297.09 352.037C2324.08 322.992 2356.83 308.43 2395.43 308.43C2413.25 308.43 2429.85 311.767 2445.43 318.351C2461.02 324.947 2475.41 334.96 2488.67 348.139V315.665ZM2410.65 376.35C2387.64 376.35 2368.53 384.408 2353.4 400.651C2338.18 416.803 2330.58 437.583 2330.58 462.902C2330.58 488.427 2338.28 509.39 2353.77 525.907C2369.26 542.322 2388.29 550.586 2410.92 550.586C2434.2 550.586 2453.6 542.516 2468.91 526.273C2484.32 510.133 2492.01 488.884 2492.01 462.628C2492.01 436.932 2484.32 416.14 2468.91 400.194C2453.6 384.317 2434.11 376.35 2410.65 376.35ZM2800.96 211.567H2881.77C2925.47 211.567 2956.93 215.556 2976.22 223.626C2995.52 231.696 3010.82 244.784 3021.97 262.776C3033.1 280.779 3038.67 302.394 3038.67 327.644C3038.67 355.558 3031.33 378.75 3016.67 397.222C3002.11 415.682 2982.26 428.576 2957.1 435.812C2942.34 439.995 2915.55 442.03 2876.67 442.03V611.259H2800.96V211.567ZM2876.67 367.994H2901.07C2920.27 367.994 2933.54 366.6 2941.06 363.902C2948.58 361.124 2954.42 356.678 2958.78 350.368C2963.05 344.059 2965.17 336.446 2965.17 327.45C2965.17 311.95 2959.14 300.634 2947.07 293.581C2938.36 288.289 2922.04 285.603 2898.29 285.603H2876.67V367.994ZM3087.66 315.665H3151.67V353.237C3158.52 338.583 3167.62 327.45 3178.95 319.837C3190.36 312.236 3202.78 308.43 3216.25 308.43C3225.79 308.43 3235.82 310.933 3246.3 316.042L3223.28 380.053C3214.66 375.687 3207.53 373.561 3201.95 373.561C3190.63 373.561 3180.99 380.614 3173.19 394.719C3165.3 408.813 3161.39 436.475 3161.39 477.659L3161.69 492.039V611.259H3087.66V315.665ZM3282.96 315.665H3358.09V457.804C3358.09 485.455 3360.05 504.658 3363.84 515.414C3367.66 526.182 3373.77 534.537 3382.23 540.561C3390.66 546.505 3401.15 549.466 3413.49 549.466C3425.82 549.466 3436.41 546.505 3445.04 540.653C3453.67 534.812 3460.07 526.182 3464.24 514.774C3467.29 506.235 3468.88 488.049 3468.88 460.216V315.665H3542.91V440.727C3542.91 492.313 3538.84 527.576 3530.66 546.597C3520.74 569.789 3505.99 587.518 3486.6 599.943C3467.21 612.288 3442.54 618.495 3412.66 618.495C3380.18 618.495 3354.02 611.259 3333.98 596.788C3313.93 582.317 3299.84 562.176 3291.68 536.298C3285.82 518.386 3282.96 485.832 3282.96 438.601V315.665ZM3835.81 201.542H3909.85V611.259H3835.81V579.814C3821.34 593.542 3806.79 603.384 3792.21 609.408C3777.64 615.431 3761.79 618.495 3744.79 618.495C3706.49 618.495 3673.45 603.749 3645.53 574.156C3617.6 544.653 3603.69 507.904 3603.69 464.022C3603.69 418.46 3617.24 381.162 3644.22 352.037C3671.22 322.992 3703.98 308.43 3742.57 308.43C3760.39 308.43 3776.99 311.767 3792.59 318.351C3808.16 325.038 3822.55 335.051 3835.81 348.322V201.542ZM3757.8 376.35C3734.78 376.35 3715.66 384.408 3700.54 400.651C3685.32 416.803 3677.73 437.583 3677.73 462.902C3677.73 488.427 3685.42 509.39 3700.92 525.907C3716.41 542.322 3735.44 550.586 3758.07 550.586C3781.35 550.586 3800.75 542.516 3816.06 526.273C3831.45 510.133 3839.16 488.884 3839.16 462.628C3839.16 436.932 3831.45 416.14 3816.06 400.194C3800.75 384.317 3781.26 376.35 3757.8 376.35ZM4280.42 484.334H4042.44C4045.87 505.412 4055.06 522.192 4069.89 534.72C4084.74 547.157 4103.76 553.364 4126.76 553.364C4154.41 553.364 4178.08 543.625 4197.94 524.147L4260.09 553.558C4244.59 575.63 4225.95 591.965 4204.34 602.629C4182.62 613.202 4156.92 618.495 4127.14 618.495C4080.95 618.495 4043.27 603.932 4014.24 574.704C3985.19 545.579 3970.63 509.024 3970.63 465.131C3970.63 420.14 3985.19 382.74 4014.24 353.054C4043.27 323.266 4079.63 308.43 4123.52 308.43C4170 308.43 4207.86 323.266 4236.99 352.872C4266.13 382.568 4280.69 421.615 4280.69 470.321L4280.42 484.334ZM4206.66 426.439C4201.73 410.299 4192.08 397.131 4177.7 387.015C4163.23 376.899 4146.53 371.892 4127.42 371.892C4106.73 371.892 4088.64 377.55 4072.94 388.958C4063.22 396.011 4054.13 408.538 4045.77 426.439H4206.66ZM4340.91 315.665H4414.94V346.093C4431.73 331.999 4447.05 322.249 4460.69 316.682C4474.32 311.207 4488.34 308.43 4502.62 308.43C4531.93 308.43 4556.88 318.637 4577.3 339.041C4594.45 356.495 4603.1 382.191 4603.1 416.14V611.259H4529.62V482.014C4529.62 446.762 4528.04 423.387 4524.89 411.876C4521.73 400.286 4516.17 391.473 4508.37 385.437C4500.49 379.402 4490.75 376.35 4479.23 376.35C4464.21 376.35 4451.31 381.345 4440.54 391.37C4429.79 401.394 4422.36 415.305 4418.19 432.943C4416.06 442.213 4414.94 462.171 4414.94 492.873V611.259H4340.91V315.665ZM4683.91 206.549H4757.94V315.665H4801.93V379.688H4757.94V611.259H4683.91V379.688H4646.05V315.665H4683.91V206.549ZM4871.32 194.318C4884.31 194.318 4895.44 199.039 4904.72 208.412C4914.08 217.785 4918.73 229.102 4918.73 242.464C4918.73 255.643 4914.08 266.868 4904.9 276.138C4895.73 285.42 4884.68 290.061 4871.79 290.061C4858.61 290.061 4847.37 285.328 4838.12 275.864C4828.73 266.399 4824.1 254.889 4824.1 241.355C4824.1 228.359 4828.73 217.317 4837.92 208.126C4847.1 198.948 4858.25 194.318 4871.32 194.318ZM4834.13 611.259H4908.17V315.665H4834.13V611.259ZM5194.08 315.665H5268.14V611.259H5194.08V579.814C5179.63 593.542 5165.05 603.384 5150.5 609.408C5135.93 615.431 5120.06 618.495 5103.08 618.495C5064.77 618.495 5031.74 603.749 5003.81 574.156C4975.89 544.653 4961.96 507.904 4961.96 464.022C4961.96 418.46 4975.5 381.162 5002.52 352.037C5029.51 322.992 5062.27 308.43 5100.86 308.43C5118.68 308.43 5135.28 311.767 5150.86 318.351C5166.44 324.947 5180.83 334.96 5194.08 348.139V315.665ZM5116.07 376.35C5093.07 376.35 5073.95 384.408 5058.81 400.651C5043.6 416.803 5035.99 437.583 5035.99 462.902C5035.99 488.427 5043.7 509.39 5059.2 525.907C5074.69 542.322 5093.71 550.586 5116.35 550.586C5139.64 550.586 5159.04 542.516 5174.34 526.273C5189.74 510.133 5197.43 488.884 5197.43 462.628C5197.43 436.932 5189.74 416.14 5174.34 400.194C5159.04 384.317 5139.55 376.35 5116.07 376.35ZM5335.03 611.259H5409.08V201.542H5335.03V611.259Z" fill="#53555A"></path><path fill-rule="evenodd" clip-rule="evenodd" d="M202.489 457.108H338.956V0H202.489V457.108ZM202.489 818.817H338.956V639.06H202.489V818.817Z" fill="#E71615"></path><path fill-rule="evenodd" clip-rule="evenodd" d="M479.836 179.745H616.303V0H479.836V179.745ZM479.836 818.817H616.303V361.709H479.836V818.817Z" fill="#E71615"></path><path fill-rule="evenodd" clip-rule="evenodd" d="M639.05 616.313H818.815V479.844H639.05V616.313ZM0 616.313H457.112V479.844H0V616.313Z" fill="#53555A"></path><path fill-rule="evenodd" clip-rule="evenodd" d="M361.703 338.962H818.815V202.492H361.703V338.962ZM0 338.962H179.743V202.492H0V338.962Z" fill="#53555A"></path></svg>