<svg xmlns="http://www.w3.org/2000/svg" width="225" height="225" viewBox="0 0 225 225" fill="none"><g clip-path="url(#clip0_1185_4111)"><rect x="54" y="10" width="115" height="102" fill="#FCC30D"></rect><path d="M0 0H225V183.92C150 183.92 75 183.92 0 183.92V0ZM101.48 11.61C94.6029 13.0142 88.0885 15.8191 82.3423 19.85C76.5962 23.881 71.7413 29.0516 68.08 35.04C64.5879 40.8089 62.3393 47.2436 61.4783 53.932C60.6173 60.6203 61.1628 67.4147 63.08 73.88C66.9453 86.6338 75.684 97.3489 87.4 103.7C99.5603 110.311 113.828 111.891 127.14 108.1C134.458 106.039 141.221 102.365 146.932 97.346C152.643 92.3274 157.156 86.0926 160.14 79.1C164.741 68.1408 165.129 55.868 161.23 44.64C159.017 38.3537 155.587 32.565 151.136 27.6046C146.685 22.6442 141.301 18.6091 135.29 15.73C124.788 10.6463 112.895 9.19704 101.48 11.61ZM30.66 120C31.47 127 30.87 134 31.05 140.94C30.87 153.73 31.4 166.54 30.85 179.31C39.91 179.31 48.96 179.31 58.01 179.31C61.916 179.347 65.7304 178.127 68.89 175.83C74.66 171.74 76.14 163.53 73.89 157.12C72.18 152.38 67.57 149.34 62.74 148.5C66.18 146.98 70.13 145.57 71.98 142.03C73.1298 139.703 73.7112 137.136 73.6764 134.541C73.6417 131.946 72.9917 129.395 71.78 127.1C69.07 122.26 63.26 120.1 57.96 120.03C48.89 119.97 39.77 120.03 30.66 120ZM83.2 120C83.88 133.81 83.07 147.68 83.74 161.49C84.17 170.73 92 178.33 100.94 179.64C109.17 180.74 118.2 180.81 125.58 176.48C131.33 173.19 134.65 166.59 134.74 160.07C134.92 146.71 134.42 133.35 134.87 120H127.43C128.06 130.64 127.67 141.32 127.82 152C127.72 157.38 128.56 163.44 125.12 168C120.59 173.8 111.77 174.4 105.44 171.52C100.36 169.17 98.61 163.2 98.85 158C99.03 145.33 98.55 132.64 99.1 120H83.2ZM152.6 137.82C147.37 151.64 142.89 165.77 137.21 179.41C139.88 179.41 142.54 179.41 145.21 179.41C146.64 173.64 148.98 168.17 150.95 162.58H170.95C172.87 168.19 175.29 173.66 176.64 179.45C182.39 179.4 188.13 179.45 193.87 179.45C191.68 175.52 190.41 171.19 188.76 167.03C183.03 151.33 176.76 135.82 171.34 120.03H158.7C157.17 126.1 154.57 131.85 152.6 137.82Z" fill="#B00B2B"></path><path d="M86.24 30.5404C90.78 22.8604 97.38 15.9304 106.17 13.3604C103.313 17.4992 101.157 22.0806 99.79 26.9204C95.1889 27.7855 90.6595 28.9956 86.24 30.5404Z" fill="#B00B2B"></path><path d="M102.13 26.5C104 21.26 106.13 15.5 111.13 12.5C111.28 17.01 111.22 21.5 111.21 26.03C108.17 26.08 105.14 26.24 102.13 26.5Z" fill="#B00B2B"></path><path d="M113.52 12.5703C118.64 15.4603 120.57 21.3403 122.57 26.4903C119.57 26.2703 116.5 26.1103 113.47 25.9203C113.48 21.4703 113.43 17.0203 113.52 12.5703Z" fill="#B00B2B"></path><path d="M118.24 13.2402C127.1 15.8602 133.9 22.7502 138.44 30.5602C134.046 29.0295 129.552 27.8033 124.99 26.8902C123.582 21.9702 121.295 17.3456 118.24 13.2402Z" fill="#B00B2B"></path><path d="M65.35 46.0097C67.8924 38.6146 72.1432 31.9234 77.7572 26.4796C83.3712 21.0359 90.1901 16.9931 97.66 14.6797C93.19 18.1797 88.89 22.0797 85.99 27.0197C84.58 29.1997 83.68 32.0197 81.05 33.0197C74.9179 36.1315 69.555 40.5687 65.35 46.0097Z" fill="#B00B2B"></path><path d="M126.94 14.7197C141.87 19.3197 154.45 31.0597 159.36 45.9697C156.104 41.769 152.138 38.1712 147.64 35.3397C145.09 33.5897 141.57 32.8097 140.3 29.6797C137.061 23.7287 132.488 18.6083 126.94 14.7197Z" fill="#B00B2B"></path><path d="M101.65 28.7699C104.84 28.4799 108.03 28.1599 111.23 27.9199C111.23 33.2533 111.25 38.6166 111.29 44.0099C107.07 44.0899 102.85 44.2399 98.64 44.5499C99.2072 39.216 100.214 33.9381 101.65 28.7699Z" fill="#B00B2B"></path><path d="M113.54 27.9404C116.76 28.1404 119.96 28.5004 123.16 28.8804C124.52 34.0318 125.522 39.2709 126.16 44.5604C121.95 44.2704 117.73 44.1004 113.51 43.9804C113.55 38.6304 113.52 33.2404 113.54 27.9404Z" fill="#B00B2B"></path><path d="M125.62 29.2402C130.34 30.3402 135.17 31.3402 139.53 33.5302C142.36 37.6202 143.15 42.7502 144.53 47.4502C139.207 46.1903 133.8 45.3213 128.35 44.8502C127.837 39.5853 126.924 34.3669 125.62 29.2402Z" fill="#B00B2B"></path><path d="M84.87 33.7697C89.2 31.2897 94.24 30.4497 99.02 29.2197C97.84 34.3297 97.17 39.5197 96.34 44.6897C91.01 45.5897 85.6 46.0997 80.34 47.4297C81.49 42.7797 82.56 38.0097 84.87 33.7697Z" fill="#B00B2B"></path><path d="M63.79 54.5797C66.68 45.7997 73.79 39.2997 81.71 34.9697C80.107 39.1942 78.8495 43.5418 77.95 47.9697C72.8862 49.3458 68.0966 51.5817 63.79 54.5797Z" fill="#B00B2B"></path><path d="M143.1 35.0898C151.1 39.3798 158.19 45.9298 161.1 54.7398C156.92 51.4798 151.93 49.6298 146.92 48.0898C145.963 43.6698 144.686 39.325 143.1 35.0898Z" fill="#B00B2B"></path><path d="M98.43 46.8903C102.703 46.4539 106.995 46.237 111.29 46.2403C111.29 50.5603 111.29 54.8803 111.29 59.2403C106.81 59.2403 102.327 59.2403 97.84 59.2403C97.94 55.0903 98.18 50.9903 98.43 46.8903Z" fill="#B00B2B"></path><path d="M113.55 46.2402C117.82 46.3002 122.1 46.4802 126.35 46.8502C126.67 50.9602 126.88 55.0902 127.08 59.2102C122.58 59.2102 118.08 59.2102 113.59 59.2102C113.57 54.8802 113.54 50.5502 113.55 46.2402Z" fill="#B00B2B"></path><path d="M79.89 49.8197C85.2532 48.5117 90.6942 47.5464 96.18 46.9297C95.96 51.0197 95.75 55.1097 95.63 59.2097H79.1C79.32 56.0597 79.6 52.9397 79.89 49.8197Z" fill="#B00B2B"></path><path d="M128.69 46.9297C134.175 47.573 139.616 48.5549 144.98 49.8697C145.25 52.9897 145.52 56.1097 145.75 59.2397C140.23 59.2397 134.75 59.2397 129.19 59.2397C129.07 55.1197 128.903 51.0164 128.69 46.9297Z" fill="#B00B2B"></path><path d="M63.11 59.1001C66.34 54.1001 72.23 52.2101 77.56 50.3701C77.29 53.3001 77.12 56.2301 76.97 59.1701C72.35 59.1801 67.73 59.2401 63.11 59.1001Z" fill="#B00B2B"></path><path d="M147.29 50.4502C152.63 52.2702 158.51 54.1802 161.78 59.1502C157.17 59.3002 152.56 59.2402 147.96 59.2302C147.8 56.3002 147.57 53.3702 147.29 50.4502Z" fill="#B00B2B"></path><path d="M63.11 61.5298C67.72 61.3198 72.34 61.4398 76.95 61.4098C77.11 64.3398 77.3 67.2698 77.61 70.1798C72.27 68.3698 66.43 66.4198 63.11 61.5298Z" fill="#B00B2B"></path><path d="M79.12 61.4199C84.63 61.4199 90.12 61.4199 95.65 61.4199C95.78 65.4999 96.01 69.5699 96.26 73.6399C90.7764 73.0547 85.3378 72.1059 79.98 70.7999C79.6133 67.6733 79.3267 64.5466 79.12 61.4199Z" fill="#B00B2B"></path><path d="M97.85 61.4199C102.34 61.4199 106.85 61.4199 111.32 61.4199C111.32 65.7399 111.337 70.0733 111.37 74.4199C107.09 74.3099 102.8 74.1799 98.53 73.8199C98.22 69.6799 97.97 65.5599 97.85 61.4199Z" fill="#B00B2B"></path><path d="M113.58 61.4502H127.04C126.927 65.5902 126.73 69.7202 126.45 73.8402C122.18 74.2102 117.89 74.3402 113.61 74.4002C113.61 70.0802 113.61 65.7602 113.58 61.4502Z" fill="#B00B2B"></path><path d="M129.22 61.4297C134.73 61.4297 140.22 61.4297 145.76 61.4297C145.58 64.5697 145.33 67.7097 144.97 70.8397C139.618 72.0766 134.199 73.0015 128.74 73.6097C128.96 69.5597 129.1 65.4897 129.22 61.4297Z" fill="#B00B2B"></path><path d="M148 61.4404C152.6 61.5004 157.19 61.4404 161.78 61.5204C158.59 66.5204 152.6 68.3404 147.32 70.2804C147.62 67.3404 147.83 64.3904 148 61.4404Z" fill="#B00B2B"></path><path d="M63.83 65.96C68.1024 68.9561 72.8833 71.1517 77.94 72.44C78.9379 76.9106 80.2512 81.3049 81.87 85.59C73.91 81.24 66.71 74.79 63.83 65.96Z" fill="#B00B2B"></path><path d="M147.06 72.4295C152.108 71.1871 156.88 69.0132 161.13 66.0195C158.26 74.8295 151.13 81.3195 143.2 85.6295C144.786 81.3226 146.075 76.9123 147.06 72.4295Z" fill="#B00B2B"></path><path d="M80.43 73.1602C85.79 74.3802 91.23 75.1602 96.65 75.9602C97.1476 81.171 98.0436 86.3361 99.33 91.4102C94.4315 90.4087 89.6398 88.942 85.02 87.0302C83.0463 82.5657 81.5091 77.9207 80.43 73.1602Z" fill="#B00B2B"></path><path d="M128.54 75.7997C133.944 75.2721 139.309 74.3969 144.6 73.1797C143.36 77.8397 142.42 82.7297 139.94 86.9297C135.57 89.3297 130.58 90.2697 125.77 91.4297C127.008 86.2804 127.933 81.0609 128.54 75.7997Z" fill="#B00B2B"></path><path d="M65.56 74.7197C70.23 80.7197 76.46 85.2197 83.15 88.7197C86.96 95.3897 91.66 101.65 98.15 105.95C83.19 101.37 70.5 89.6897 65.56 74.7197Z" fill="#B00B2B"></path><path d="M141.92 88.8101C148.6 85.2101 154.92 80.8101 159.48 74.6201C154.66 89.6201 141.98 101.45 126.97 106.03C133.43 101.74 138.12 95.4701 141.92 88.8101Z" fill="#B00B2B"></path><path d="M98.72 75.9199C102.93 76.2699 107.15 76.5799 111.37 76.6599C111.37 81.9399 111.37 87.2299 111.37 92.5199C108.17 92.3499 104.97 92.1499 101.77 91.9599C100.35 86.698 99.3301 81.336 98.72 75.9199Z" fill="#B00B2B"></path><path d="M113.62 76.6499C117.84 76.5799 122.06 76.2799 126.27 75.9199C125.53 81.3299 124.86 86.7799 123.21 92.0199C120.03 92.1599 116.84 92.3499 113.66 92.5299C113.67 87.2399 113.63 81.9399 113.62 76.6499Z" fill="#B00B2B"></path><path d="M86.43 90.0098C90.8157 91.579 95.3112 92.8224 99.88 93.7298C101.341 98.6433 103.627 103.273 106.64 107.42C97.84 104.66 90.94 97.9098 86.43 90.0098Z" fill="#B00B2B"></path><path d="M125.16 93.7403C129.722 92.8379 134.213 91.6115 138.6 90.0703C134.14 97.9403 127.3 104.72 118.49 107.41C121.515 103.291 123.775 98.6601 125.16 93.7403Z" fill="#B00B2B"></path><path d="M102.31 94.1699C105.31 94.3699 108.38 94.5999 111.42 94.7799C111.42 99.2299 111.49 103.68 111.37 108.13C106.43 105.07 104.26 99.3799 102.31 94.1699Z" fill="#B00B2B"></path><path d="M113.7 94.7999C116.7 94.6099 119.7 94.3799 122.7 94.1299C120.8 99.3299 118.86 105.13 113.7 108.06C113.64 103.64 113.7 99.2399 113.7 94.7999Z" fill="#B00B2B"></path><path d="M46.31 126.39C49.91 126.51 54.45 125.78 56.95 129.08C59.56 133.2 59.12 138.85 56.95 143.08C54.82 146.63 50.06 145.96 46.53 146.3C46.24 139.65 46.48 133.02 46.31 126.39Z" fill="#B00B2B"></path><path d="M160.89 133.89C163.51 141.24 166.15 148.59 168.63 156C163.517 155.9 158.403 155.9 153.29 156C155.76 148.6 158.43 141.24 160.89 133.89Z" fill="#B00B2B"></path><path d="M46.43 152.24C50.48 152.19 55.54 152.16 57.88 156.15C59.88 160.35 60.17 165.76 57.88 169.89C55.38 173.61 50.39 172.95 46.51 172.99C46.52 166.09 46.43 159.18 46.43 152.24Z" fill="#B00B2B"></path><path d="M0 189.94H225V225.01H0V189.94ZM35.62 199.64C29.57 202.73 28.83 212.03 33.33 216.7C37.49 220.44 43.58 219.3 48.5 218.02C48.44 214.62 48.44 211.21 48.5 207.81H43.5C43.5 210.81 43.55 213.81 43.5 216.81C42.37 216.81 41.23 216.9 40.1 216.91C37.1 216.19 35.97 212.79 35.98 210.04C35.77 206.9 36.29 203.04 39.31 201.34C42.23 199.8 45.4 201.21 48.1 202.49C48 201.64 47.81 199.94 47.72 199.08C43.75 198.46 39.34 197.63 35.62 199.64ZM68.11 198.64C68.22 205.37 68.16 212.09 68.11 218.82C69.87 218.82 71.63 218.84 73.39 218.88C73.39 215.88 73.33 212.83 73.39 209.8C75.11 212.8 76.75 215.8 78.39 218.8C80.39 218.8 82.39 218.86 84.39 218.91C82.39 215.84 80.48 212.74 78.49 209.68C81.98 208.45 84.29 204.39 81.98 201.05C78.5 197.16 72.65 199.16 68.11 198.68V198.64ZM106.37 199.29C98.92 202.69 99.2 215.78 107.02 218.53C111.18 219.69 116.26 219.53 119.64 216.53C123.03 213.2 123.12 207.68 121.52 203.53C119.03 197.95 111.43 197.44 106.37 199.33V199.29ZM141.56 198.64C141.78 203.77 141.25 208.94 141.81 214.05C142.49 217.73 146.62 219.36 149.99 219.2C153.52 219.39 157.99 217.87 158.69 213.95C159.46 208.9 158.9 203.77 159.08 198.68L156.71 198.56C156.58 203.56 157.06 208.56 156.48 213.56C155.48 217.84 148.3 218 146.95 213.88C146.35 208.83 146.82 203.71 146.75 198.64H141.56ZM178.88 198.64C178.88 205.36 178.88 212.08 178.88 218.8C180.62 218.8 182.36 218.87 184.1 218.93C184.1 216.264 184.1 213.57 184.1 210.85C186.78 210.57 189.93 210.98 192.04 208.93C195.15 206.13 194.15 199.93 189.83 198.93C186.23 198.41 182.53 198.74 178.88 198.7V198.64Z" fill="#FCC30D"></path><path d="M73.29 208.35C73.29 205.67 73.37 202.98 73.54 200.3C75.41 200.87 77.79 201.74 77.62 204.15C78.08 206.79 75.75 208.54 73.29 208.35Z" fill="#FCC30D"></path><path d="M109.21 201.16C109.879 200.758 110.635 200.521 111.414 200.467C112.193 200.414 112.973 200.547 113.691 200.855C114.409 201.162 115.043 201.636 115.542 202.237C116.041 202.837 116.39 203.548 116.56 204.31C117.21 207.71 117.49 211.56 115.86 214.75C114.16 218.31 108.14 217.64 107.22 213.75C106.18 209.75 105.63 204.09 109.21 201.16Z" fill="#FCC30D"></path><path d="M184.08 200.63C185.56 201.1 187.95 200.71 188.31 202.72C188.618 203.403 188.749 204.153 188.692 204.901C188.635 205.648 188.392 206.369 187.984 206.998C187.576 207.627 187.016 208.143 186.357 208.5C185.698 208.857 184.96 209.042 184.21 209.04C184.12 206.24 184.09 203.43 184.08 200.63Z" fill="#FCC30D"></path></g><defs><clipPath id="clip0_1185_4111"><rect width="225" height="225" fill="white"></rect></clipPath></defs></svg>