<svg xmlns="http://www.w3.org/2000/svg" width="432" height="73" viewBox="0 0 432 73" fill="none"><g clip-path="url(#clip0_930_4432)"><path d="M16.892 0H25.4723C25.4723 16.8888 25.3828 33.7627 25.4723 50.6365C25.2485 52.4214 26.7706 53.7263 28.0837 54.6113C33.1722 55.2412 38.3055 54.7912 43.4238 54.8812C43.4238 57.761 43.4238 60.6258 43.4238 63.5056C38.3353 63.4007 33.2468 63.7006 28.1733 63.3257C25.1407 62.8384 22.3682 61.3144 20.3238 59.0109C18.2795 56.7073 17.0884 53.7654 16.9517 50.6815C16.7726 40.8722 16.9517 31.0479 16.9517 21.2386C11.326 21.2386 5.68539 21.2386 0.0596924 21.2386C0.0596924 18.3437 0.0596924 15.4489 0.0596924 12.5541C5.67047 12.5541 11.2812 12.5541 16.9069 12.4492C16.9219 8.33943 16.9069 4.16971 16.892 0Z" fill="#545454"></path><path d="M60.7486 18.9583C65.3148 15.8685 69.9706 12.7187 75.4471 11.5488C75.5366 14.3236 75.5814 17.0985 75.6261 19.8733C69.1648 21.4782 61.5246 25.2879 60.8083 32.7574C60.3905 43.0017 60.8083 53.261 60.6591 63.5053H52.3026C52.4966 46.6164 52.3026 29.7426 52.422 12.8537H60.5546C60.6143 14.8936 60.674 16.9185 60.7486 18.9583Z" fill="#545454"></path><path d="M82.4456 37.3175C81.998 24.3284 92.548 11.6842 105.68 11.0243C118.587 9.71937 130.63 20.5036 131.943 33.2528C132.704 43.2571 131.943 53.3064 132.346 63.2507C129.481 63.2507 126.601 63.2507 123.736 63.2507C123.736 54.0113 124.019 44.742 123.586 35.5026C123.318 26.9832 115.782 19.0037 107.082 19.4987C98.0245 19.3937 90.4589 28.2581 91.0558 37.1525C90.0411 46.7518 98.6065 56.2912 108.291 55.7512C112.41 55.7512 115.961 53.3064 119.274 51.1015C119.274 54.4613 119.274 57.8061 119.274 61.1658C113.843 64.014 107.587 64.8478 101.606 63.5207C95.9818 61.8925 91.0522 58.439 87.5861 53.6988C84.1201 48.9587 82.3126 43.1987 82.4456 37.3175Z" fill="#545454"></path><path d="M161.161 12.0288C171.606 9.9589 184.872 17.2334 185.454 28.8276C185.663 40.3168 185.454 51.821 185.454 63.3252L176.784 63.2502C176.695 51.2511 177.068 39.2519 176.665 27.2527C172.472 17.9534 156.594 17.8034 153.147 27.7477C152.64 39.5819 152.983 51.4611 152.998 63.3252H144.313C144.313 52.091 144.179 40.8268 144.313 29.6376C144.597 20.5932 152.565 13.2587 161.161 12.0288Z" fill="#545454"></path><path d="M255.813 18.6139C258.979 15.7795 262.748 13.7089 266.831 12.56C270.914 11.4112 275.204 11.2143 279.375 11.9844C279.3 14.7442 279.285 17.519 279.27 20.2788C272.212 19.8438 263.975 20.5938 259.648 27.0433C253.395 34.7228 255.768 47.112 264.124 52.2266C268.601 55.2264 274.137 54.8364 279.256 54.8664C279.256 57.7162 279.256 60.551 279.256 63.4008C270.138 64.1208 260.051 62.0809 254.037 54.5815C244.845 44.6221 245.8 27.6133 255.813 18.6139Z" fill="#545454"></path><path d="M359.03 19.0341C363.402 15.6894 368.118 12.6296 373.624 11.6396C373.743 14.3845 373.818 17.1143 373.893 19.8591C367.819 21.359 360.761 24.4788 359.09 31.1983C358.612 41.9376 359.09 52.7218 358.896 63.4761C355.911 63.4761 352.927 63.4761 350.047 63.4761C350.047 46.6073 350.047 29.7434 350.047 12.8846H358.732C358.821 14.8794 358.926 17.0243 359.03 19.0341Z" fill="#545454"></path><path d="M380.966 36.3727C380.966 23.1286 392.396 10.8745 405.737 10.8745C417.675 10.5295 428.493 19.8739 430.836 31.5731C433.716 37.8576 430.657 44.5172 428.255 50.4118C422.39 62.6209 406.035 68.0656 394.321 61.0161C394.321 58.1362 394.232 55.2565 394.112 52.3916C402.215 58.1962 415.183 56.4714 420.226 47.427C426.807 37.4677 421.062 21.2538 408.751 19.6939C399.201 17.699 389.785 26.1434 389.606 35.6528C389.606 48.0719 389.606 60.4761 389.606 72.8952H380.891C380.921 60.7911 380.802 48.5219 380.966 36.3727Z" fill="#545454"></path><path d="M196.258 21.4188C197.211 18.8816 198.902 16.6917 201.112 15.1347C203.321 13.5776 205.945 12.7255 208.643 12.6894C217.03 12.5994 225.416 12.6894 233.802 12.6894C233.802 15.5392 233.802 18.404 233.907 21.2538C225.162 21.5838 216.403 21.0738 207.658 21.4938C205.525 21.4938 204.674 23.7886 203.585 25.1836L205.077 29.0983C213.15 32.683 221.656 35.2329 229.833 38.5926C231.408 39.3141 232.821 40.3487 233.988 41.6341C235.154 42.9195 236.05 44.429 236.62 46.0717C237.19 47.7144 237.424 49.4561 237.306 51.1919C237.189 52.9277 236.723 54.6216 235.936 56.1714C234.902 58.2096 233.352 59.9383 231.443 61.1836C229.533 62.429 227.331 63.1471 225.058 63.266C215.836 63.4759 206.614 63.266 197.392 63.3559C197.392 60.4911 197.392 57.6263 197.392 54.7615C206.838 54.6115 216.358 55.2265 225.744 54.4916C229.072 53.7566 228.833 50.2018 228.729 47.532C220.507 43.7223 211.807 41.1425 203.435 37.7227C197.079 35.4729 193.93 27.5984 196.258 21.4188Z" fill="#545454"></path><path d="M324.157 2.02516C327.828 0.360277 332.14 1.38021 336.095 1.15522C330.981 6.48486 325.883 11.8195 320.799 17.1591C318.247 17.1591 315.696 17.2491 313.144 17.2791C316.904 12.2395 320.053 6.74984 324.157 2.02516Z" fill="#FF8300"></path><path d="M292.372 50.3968C287 40.6775 288.88 28.3333 295.357 19.6189L301.639 25.2586C296.088 32.983 296.148 44.7572 303.549 51.3268C310.488 58.3913 323.231 56.4264 328.201 48.027C333.14 41.1125 331.752 31.7531 327.126 25.0936L333.095 19.5439C343.914 31.2731 341.168 52.3767 327.261 60.4312C315.561 68.3656 298.371 62.936 292.372 50.3968Z" fill="#FF8300"></path></g><defs><clipPath id="clip0_930_4432"><rect width="432" height="73" fill="white"></rect></clipPath></defs></svg>