<svg xmlns="http://www.w3.org/2000/svg" width="243" height="239" viewBox="0 0 243 239" fill="none"><g clip-path="url(#clip0_930_4425)"><path d="M107.47 0.540135C130.82 -1.45987 155.09 2.15014 175.93 13.2601C187.656 18.846 198.287 26.4866 207.32 35.8201C227.63 55.0601 239.88 82.2201 242.07 110C242.22 115.71 242.07 121.43 242.07 127.14C240.436 150.8 231.659 173.406 216.9 191.97C212.61 197.97 206.84 202.57 201.9 207.97C183.158 224.567 159.805 235.063 134.95 238.06C124.15 238.54 113.28 239.06 102.53 237.65C82.7925 234.774 64.0769 227.047 48.06 215.16C42.8811 211.375 37.9572 207.253 33.32 202.82C28.98 197.5 24.03 192.67 20.32 186.82C11.7402 174.469 5.5969 160.594 2.21996 145.94C1.43996 140.99 -0.179994 136.11 0.0800063 131.05C0.0800063 122.37 0.0800063 113.69 0.0800063 105.05C2.65001 85.6001 9.51997 66.3301 21.86 50.8901C28.44 42.2101 36.57 34.8901 44.35 27.3001C61.85 11.8901 84.79 4.27013 107.47 0.540135ZM25.56 84.6801C20.29 85.6801 18.67 91.6801 18.36 96.2701C18.05 105.21 18.36 114.16 18.23 123.11C18.23 130.7 19.23 138.9 24.23 144.94C29.13 151.24 37.3 154.03 45.06 154.29C53.83 154.84 63.62 153.65 70.28 147.34C76.28 142.07 78.35 133.76 78.28 126.05C78.28 115.71 78.52 105.36 78.12 95.0501C77.92 91.1201 76.46 86.1201 72.12 85.0001C68.12 83.3101 62.8 85.0001 60.88 89.0001C59.6569 91.8432 59.0241 94.9051 59.02 98.0001C58.93 107.35 59.12 116.71 58.96 126.05C58.44 129.26 57.61 132.88 54.74 134.83C51.87 136.78 48.29 136.36 45.05 136.1C40.57 135.19 37.93 130.44 37.87 126.1C37.45 116.76 37.87 107.4 37.65 98.1001C37.39 94.8501 37.14 91.4801 35.65 88.5301C33.77 85.0201 29.25 83.6601 25.56 84.6801ZM105.45 87.4801C101.312 90.027 97.7583 93.4191 95.0217 97.4343C92.2852 101.449 90.4274 105.997 89.57 110.78C88.02 121.04 89.05 132.23 95.2 140.92C101.12 150.02 112.56 155.77 123.38 153.54C128.95 152.75 133.23 148.94 137.38 145.54C137.26 146.54 137.16 147.64 137.07 148.7C138.75 150.18 140.14 152.18 142.32 152.97C144.449 153.254 146.608 153.227 148.73 152.89C153.09 151.39 154.64 146.3 155.01 142.14C155.08 127.14 155.01 112.07 155.01 97.0401C155.028 94.223 154.412 91.4378 153.21 88.8901C151.42 84.7401 145.92 83.4301 142 85.1701C139.21 86.0901 137.51 88.5701 136 90.9201C128.65 81.9901 114.88 82.0601 105.45 87.4801ZM191.39 84.4801C176.39 87.2901 165.39 102.04 166.06 117.07C165.49 125.89 167.46 135.07 173 142.13C182.07 154.28 199.87 157.13 213.34 151.31C217.28 149.56 221.42 146.58 222.07 142.02C222.61 138.52 220.52 135.2 217.66 133.35C211.66 131.98 206.15 136.23 200.16 136.06C195.68 135.5 190.8 133.76 188.53 129.56C185.38 125.05 185.81 119.34 186.05 114.13C186.97 108.52 190.72 102.97 196.47 101.51C203.41 99.2601 209.79 105.13 216.74 103.93C218.88 103.25 220.45 101.38 221.58 99.5201C223.41 95.1701 221.15 90.2801 217.29 87.8701C209.71 82.8901 200.06 83.1601 191.39 84.4501V84.4801ZM130.11 178C132.99 180.28 131.2 184.09 132.85 186.94C133.098 184.084 133.142 181.213 132.98 178.35L130.11 178ZM140.75 178.57C141.041 180.807 140.745 183.082 139.89 185.17C140.889 185.839 141.931 186.441 143.01 186.97C144.115 186.433 145.15 185.761 146.09 184.97C145.4 182.73 144.941 180.424 144.72 178.09C143.39 178.17 142.065 178.321 140.75 178.54V178.57ZM151.52 178.16C152.703 178.908 154.005 179.449 155.37 179.76C154.37 182.11 153.11 184.34 152.55 186.84C155.2 184.76 155.9 181.28 157.28 178.38C155.365 178.207 153.443 178.134 151.52 178.16ZM162.77 181.76C163.89 182.36 165.03 182.95 166.18 183.52C165.714 184.756 165.346 186.026 165.08 187.32C166.817 185.498 168.152 183.331 169 180.96C169.004 180.575 168.931 180.193 168.784 179.836C168.637 179.48 168.42 179.157 168.146 178.886C167.871 178.615 167.545 178.403 167.187 178.261C166.828 178.119 166.445 178.051 166.06 178.06C163.9 177.78 163.21 180.14 162.77 181.76ZM73.5 180.02L71.61 182.15C72.82 183.15 74.06 184.15 75.29 185.21L71.45 185.65C72.86 187.12 74.72 186.65 76.45 185.96C75.8 184.13 74.23 182.96 72.86 181.68L76.47 181.46C75.46 180.94 74.49 180.47 73.5 180.02ZM91.13 181.25C91.13 183.01 91.13 184.76 91.13 186.52C93.49 185.17 91.3 180.59 95.13 181.43C95.22 183.1 95.33 184.77 95.46 186.43C97.41 185.64 96.84 183.23 96.41 181.65C95.25 179.54 92.93 181.03 91.13 181.25ZM103.9 185.25C104.85 187.2 107.05 186.79 108.56 185.8L104.99 184.99C104.99 184.24 104.99 182.73 104.99 181.99L108.56 181.4C106.22 178.32 101.72 182.54 103.9 185.26V185.25ZM114.62 184.58C115.36 187.34 118.9 187.12 120.62 185.44C118.79 185.33 116.26 186.33 115.51 183.96C117.05 183.82 118.59 183.7 120.13 183.61C120.03 183.05 119.82 181.93 119.72 181.38L117.12 179.9C115.79 181.05 113.59 182.54 114.62 184.59V184.58ZM83.34 181.24C82.83 182.45 82.34 185.36 83.78 185.84C84.28 184.63 84.82 181.71 83.34 181.25V181.24Z" fill="#D82929"></path><path d="M119.37 102.36C125.07 100.78 131.25 104.12 133.68 109.36C137.37 117.29 136.32 128.46 128.68 133.76C126.861 134.732 124.845 135.279 122.784 135.36C120.723 135.441 118.67 135.055 116.78 134.23C109.14 130.23 107.72 120.23 109.59 112.61C110.189 110.199 111.407 107.986 113.121 106.189C114.836 104.391 116.99 103.072 119.37 102.36Z" fill="#D82929"></path><path d="M142.23 179.4C143.843 178.86 144.367 179.433 143.8 181.12C142.22 181.68 141.7 181.1 142.23 179.4Z" fill="#D82929"></path><path d="M165.24 179.42C166.69 178.17 168.3 180.82 166.84 181.79C165.34 182.96 163.71 180.43 165.24 179.42Z" fill="#D82929"></path><path d="M117.06 181.25C118.33 180.68 119.74 182.99 117.94 183.2C116.56 183.83 115.33 181.64 117.06 181.25Z" fill="#D82929"></path><path d="M142 182.93C143.607 182.423 144.167 183.01 143.68 184.69C142.013 185.143 141.453 184.557 142 182.93Z" fill="#D82929"></path></g><defs><clipPath id="clip0_930_4425"><rect width="242.15" height="238.54" fill="white"></rect></clipPath></defs></svg>