<svg xmlns="http://www.w3.org/2000/svg" width="384" height="131" viewBox="0 0 384 131" fill="none"><g clip-path="url(#clip0_930_4419)"><path d="M329.237 5.3705C337.439 0.409832 347.309 -0.0958036 356.577 0.0135225C365.846 0.122849 374.841 -0.218796 383.918 0.232175C376.208 35.9818 368.566 71.7679 360.993 107.59C349.332 85.7252 338.601 63.4227 327.295 41.4071C323.673 34.5742 320.802 26.8804 321.075 18.9816C321.218 16.2184 322.036 13.5324 323.459 11.1592C324.882 8.78608 326.866 6.79835 329.237 5.3705Z" fill="#E71615"></path><path d="M293.967 21.9746C305.505 43.3342 315.963 65.2677 327.118 86.8323C331.219 94.4988 334.746 103.026 333.953 111.882C333.616 114.667 332.595 117.325 330.98 119.619C329.365 121.913 327.207 123.771 324.698 125.028C317.726 128.663 309.661 129.592 301.964 129.579C291.712 129.579 281.459 129.579 271.206 129.579C278.766 93.7062 286.804 57.9566 293.967 21.9746Z" fill="#E71615"></path><path d="M12.0436 45.2201C17.7304 45.2201 23.431 45.2201 29.1178 45.2201C25.5909 62.4389 22.1232 79.6714 18.7147 96.9176C17.7988 103.341 17.1016 110.884 21.5444 116.214C25.8233 120.997 33.0959 120.518 38.7554 119.056C48.1606 116.473 53.7928 107.263 55.816 98.2432C59.5617 80.5734 63.4031 62.9309 67.0394 45.2611C72.2888 45.1654 77.5245 45.1791 82.7739 45.2611C78.8642 62.9172 75.0639 80.6007 71.2498 98.2705C70.1802 104.643 67.5391 110.649 63.5652 115.746C59.5912 120.842 54.4097 124.868 48.4887 127.461C40.0678 131.219 30.6079 131.396 21.5718 130.754C14.805 130.098 7.6007 127.57 3.67731 121.707C-0.246083 115.845 -0.423798 108.342 0.478445 101.578C4.31981 82.7599 8.2432 63.9968 12.0436 45.2201Z" fill="#E71615"></path><path d="M103.43 45.1924C114.949 45.1924 126.469 45.1924 137.988 45.1924C144.031 45.0831 150.579 46.7777 154.68 51.465C158.248 55.7287 158.549 61.7417 157.496 66.9757C155.104 75.7491 146.806 81.4067 138.358 83.6069C145.042 84.9051 152.739 88.1166 154.325 95.5234C156.156 106.019 150.893 117.129 142.021 122.951C135.074 127.43 126.951 129.742 118.686 129.592C107.75 129.592 96.704 129.661 85.7131 129.51C91.8647 101.441 97.4559 73.2756 103.43 45.1924ZM118.043 56.125C116.28 64.8575 114.749 73.6446 112.89 82.3633C117.073 82.2813 121.283 82.6366 125.466 82.1857C131.058 79.9855 137.25 76.7193 139.479 70.7747C140.545 66.839 141.638 61.6187 138.016 58.6532C132.397 54.1435 124.674 56.0977 118.084 56.1934L118.043 56.125ZM104.715 119.452C109.828 119.37 114.954 119.685 120.053 119.288C123.854 118.816 127.468 117.368 130.544 115.086C133.62 112.804 136.052 109.765 137.606 106.265C139.547 100.935 137.879 93.9655 132.63 91.2324C126.205 87.3513 118.454 88.5949 111.345 88.6086C108.966 98.7759 107.148 109.135 104.715 119.452Z" fill="#E71615"></path><path d="M158.412 129.332C177.55 101.345 196.402 73.0978 215.595 45.124L221.651 45.247C228.459 73.2709 235.253 101.299 242.033 129.332C235.909 129.332 229.73 129.332 223.661 129.332C222.54 123.866 221.419 118.4 220.257 112.934C208.363 112.934 196.484 112.934 184.591 112.934C181.036 118.4 177.359 123.757 173.887 129.25C168.733 129.442 163.566 129.36 158.412 129.332ZM192.014 100.634C200.407 100.634 208.815 100.634 217.222 100.634C214.925 91.287 212.647 81.9214 210.387 72.5375C204.308 81.8758 198.184 91.2277 192.014 100.593V100.634Z" fill="#E71615"></path></g><defs><clipPath id="clip0_930_4419"><rect width="384" height="131" fill="white"></rect></clipPath></defs></svg>