<svg xmlns="http://www.w3.org/2000/svg" width="511" height="140" viewBox="0 0 511 140" fill="none"><g clip-path="url(#clip0_929_4407)"><path d="M59.5299 12.63C64.6999 8.58 69.4799 4.05 74.6399 0C74.6399 1.61 74.5599 3.22 74.5399 4.84C87.8799 5.06 101.73 3.72 114.54 8.24C122.8 11.01 129.54 18.11 131.13 26.76C133.5 39.55 129.44 52.32 125.2 64.26C115.65 89.56 102.14 113.11 88.4399 136.35C87.7299 137.59 86.9199 138.78 86.0999 139.95C82.2699 132.47 78.0999 125.21 74.0299 117.85C86.6099 97.05 99.6599 76.41 111.17 54.96C115.84 45.96 121.1 36.44 120.47 25.96C120.18 19.05 114.87 13.33 108.47 11.2C97.2699 7.2 85.0299 8.5 73.5799 10.69C67.7165 11.7908 61.9756 13.4655 56.4399 15.69C57.0799 14.34 58.4099 13.54 59.5299 12.63Z" fill="#E31A2E"></path><path d="M0.0200195 4.04961C22.41 3.94961 44.82 4.33961 67.2 3.84961C65.6428 5.53251 63.9283 7.0628 62.08 8.41961C56.85 8.53961 51.18 8.65961 46.6 11.4896C43.78 13.2496 43.9 17.1596 45.06 19.8696C58.2 45.4596 71.19 71.1196 84.31 96.7096C80.22 102.42 76.49 108.42 72.59 114.26C57.3 85.1396 42.53 55.7396 27.44 26.5196C24.9 21.3796 22.2 16.0196 17.5 12.5196C12.5 8.79961 6.02002 8.51961 0.0700197 8.51961C0.0200197 6.99961 0.0200195 5.52961 0.0200195 4.04961Z" fill="#166561"></path><path d="M142.63 31.0898C146.13 31.0898 149.63 31.1498 153.14 31.0898C157.08 41.0898 160.62 51.1698 164.4 61.1998C165.52 60.1198 165.74 58.5098 166.3 57.1298C169.49 48.4498 172.74 39.7998 175.93 31.1298C179.38 31.1298 182.84 31.1298 186.29 31.1298C180.35 45.6298 174.61 60.2198 168.74 74.7398C165.9 74.7998 163.07 74.7998 160.24 74.7398C154.32 60.2398 148.6 45.6098 142.63 31.0898Z" fill="black"></path><path d="M192.32 31.1698C203.32 30.9998 214.32 31.2298 225.32 31.0498C225.44 33.9498 225.4 36.8498 225.38 39.7598C217.5 39.7598 209.62 39.7598 201.75 39.7598C201.75 42.8931 201.75 46.0265 201.75 49.1598C208.75 49.1598 215.69 49.0998 222.65 49.1598C222.583 51.9731 222.583 54.7831 222.65 57.5898C215.65 57.6698 208.72 57.5898 201.75 57.5898C201.75 63.2198 201.75 68.8498 201.83 74.4798C198.64 74.4798 195.46 74.4798 192.28 74.4798C192.427 60.0465 192.44 45.6098 192.32 31.1698Z" fill="black"></path><path d="M232.3 31.1595C239.17 31.1595 246.07 30.9195 252.93 31.2895C260.29 32.1195 267.39 36.6095 270.46 43.4895C274.2 51.4895 272.66 61.9195 266.17 68.0895C261.72 72.5795 255.25 74.6795 249.01 74.5495C243.45 74.5495 237.88 74.5495 232.32 74.5495C232.38 60.0695 232.42 45.6095 232.3 31.1595ZM241.92 39.7095C241.92 48.4195 241.92 57.1295 241.92 65.8295C247.15 66.0595 253.06 66.6995 257.54 63.4095C264.63 58.2895 264.08 45.8795 256.44 41.5195C252.02 38.8595 246.77 39.8795 241.92 39.7095Z" fill="black"></path><path d="M293.02 35.9703C301.21 28.0303 315.02 28.8503 323.49 35.9003L321.22 38.5803C318.246 35.7542 314.454 33.9418 310.387 33.4029C306.32 32.864 302.187 33.6262 298.58 35.5803C287.58 41.9803 286.23 59.1603 295.23 67.7703C302.41 74.4203 314.38 73.6403 321.65 67.5503C322.16 63.4603 321.6 59.2303 321.89 55.0903C317.02 55.0003 312.15 55.0903 307.28 55.0903C307.28 54.3103 307.36 52.7603 307.38 51.9803C313.22 52.1403 319.06 51.9803 324.91 52.0703C324.91 57.6603 324.78 63.2503 324.91 68.8303C318.68 74.1403 309.91 76.8303 301.85 74.6303C298.75 73.8997 295.866 72.4475 293.433 70.3918C291.001 68.3361 289.088 65.735 287.85 62.8003C284.18 53.8903 285.87 42.6603 293.02 35.9703Z" fill="black"></path><path d="M335.89 31.1199C342.29 31.1199 348.7 31.0699 355.1 31.1199C359.091 31.0486 362.973 32.4311 366.02 35.0099C370.84 39.2799 370.95 47.8499 366.02 52.0999C363.62 54.3999 360.34 55.3999 357.14 55.9499C361.56 62.3599 366.6 68.3299 371.3 74.5399H367.23C362.44 68.5399 358.03 62.3399 353.15 56.4699C348.44 56.6199 343.72 56.4699 339.01 56.5799C339.29 62.4899 338.96 68.4099 339.23 74.3199L335.94 74.6199C335.77 60.1499 335.96 45.6299 335.89 31.1199ZM339.1 34.1199C339.25 40.5999 339.1 47.1199 339.15 53.5599C345.15 53.3699 351.15 53.8299 357.09 53.2899C362.22 52.8099 367.09 48.3599 366.49 42.9199C366.36 37.8299 361.37 34.4699 356.67 34.1899C350.82 33.9599 344.96 34.1399 339.1 34.1399V34.1199Z" fill="black"></path><path d="M392.45 31.6397C400.18 28.8797 409.61 30.4597 415.45 36.4697C423.8 44.6797 424.14 59.4697 416.3 68.0897C413.579 71.1376 410.054 73.3573 406.129 74.4945C402.205 75.6317 398.039 75.6404 394.11 74.5197C385.34 72.3197 378.91 63.9097 378.4 54.9797C377.28 45.2297 383.07 34.9697 392.45 31.6397ZM396.45 33.6397C392.34 34.4263 388.643 36.6487 386.02 39.9097C379.3 48.0897 380.41 61.6097 388.72 68.3097C391.971 70.912 396.011 72.3298 400.175 72.3298C404.339 72.3298 408.379 70.912 411.63 68.3097C419.8 61.7197 420.94 48.5697 414.56 40.3697C412.491 37.6519 409.696 35.5736 406.497 34.3741C403.299 33.1747 399.826 32.9028 396.48 33.5897L396.45 33.6397Z" fill="black"></path><path d="M431.63 31.0801L434.88 31.1801C434.74 39.7601 434.78 48.3501 434.83 56.9301C434.83 62.8001 437.69 69.1701 443.5 71.2801C448.8 73.0401 455.5 72.7701 459.67 68.6701C462.88 65.6701 463.98 61.1501 463.94 56.9101C463.94 48.3301 463.94 39.7434 463.94 31.1501L467.32 31.0901C467.32 39.7001 467.32 48.3001 467.32 56.9001C467.27 63.1601 464.62 69.9001 458.84 73.0101C455.614 74.7002 451.988 75.4805 448.352 75.2674C444.716 75.0542 441.207 73.8556 438.2 71.8001C433.66 68.3401 431.63 62.4601 431.7 56.8901C431.62 48.2901 431.65 39.6801 431.63 31.0801Z" fill="black"></path><path d="M478.78 31.1095C487.12 31.7395 496.05 29.5195 503.91 33.1095C512.21 36.7595 513.06 49.6395 505.8 54.7595C499.02 59.8395 490.02 58.1395 482.08 58.3595C481.79 63.7695 482.03 69.1895 481.97 74.5995L478.73 74.4195C478.87 59.9995 478.76 45.5595 478.78 31.1095ZM481.96 34.1095C481.96 41.1095 481.96 48.1995 481.96 55.2495C489.14 54.7195 497.32 56.9895 503.61 52.4995C509.34 48.5795 508.69 38.6995 502.36 35.7095C496.03 32.7195 488.73 34.5295 481.96 34.1395V34.1095Z" fill="black"></path><path d="M57.48 32.4195C60.78 30.9095 64.53 31.9195 68.03 31.6795C77.33 31.9595 86.72 31.1195 95.97 32.2895C98.63 32.7295 97.8 35.7395 96.59 37.2895C91.49 44.8595 86.02 52.2095 80.84 59.7095C79.02 62.2095 77.1 65.1195 74.02 66.2095C71.92 65.7295 70.82 63.6895 69.84 61.9695C66.22 54.8795 62.46 47.8495 58.96 40.6995C58.08 38.1495 55.4 34.9595 57.48 32.4195Z" fill="#166561"></path></g><defs><clipPath id="clip0_929_4407"><rect width="510.74" height="139.95" fill="white"></rect></clipPath></defs></svg>